<?xml version="1.0" standalone="no"?>
<!DOCTYPE svg PUBLIC "-//W3C//DTD SVG 1.1//EN" "http://www.w3.org/Graphics/SVG/1.1/DTD/svg11.dtd"><svg t="1713231372417"
  class="icon" viewBox="0 0 1024 1024" version="1.1" xmlns="http://www.w3.org/2000/svg" p-id="3213"
  xmlns:xlink="http://www.w3.org/1999/xlink" width="200" height="200">
  <path
    d="M548.181333 341.333333a42.666667 42.666667 0 0 1-38.997333-25.344l-30.848-69.546666a21.333333 21.333333 0 0 0-19.072-11.776H213.333333a21.333333 21.333333 0 0 0-21.333333 21.333333v490.666667a21.333333 21.333333 0 0 0 21.333333 21.333333h597.333334a21.333333 21.333333 0 0 0 21.333333-21.333333v-384A21.333333 21.333333 0 0 0 810.666667 341.333333h-262.485334z m26.112-64a21.333333 21.333333 0 0 1-19.712-13.226666l-18.986666-46.250667A85.333333 85.333333 0 0 0 459.221333 170.666667H213.333333a85.333333 85.333333 0 0 0-85.333333 85.333333v490.666667a85.333333 85.333333 0 0 0 85.333333 85.333333h597.333334a85.333333 85.333333 0 0 0 85.333333-85.333333v-384a85.333333 85.333333 0 0 0-85.333333-85.333334h-236.373334z"
    fill="#1E1E1E" p-id="3214"></path>
</svg>